<svg width="92" height="22" viewBox="0 0 92 22" fill="none" xmlns="http://www.w3.org/2000/svg">
<path d="M85.793 17.3906C89.3203 17.3906 91.6406 14.9531 91.6406 10.9805V10.957C91.6406 7.00781 89.2969 4.58203 85.7812 4.58203C82.2773 4.58203 79.9453 7.01953 79.9453 10.957V10.9805C79.9453 14.9414 82.2539 17.3906 85.793 17.3906ZM85.8047 15.2695C83.8242 15.2695 82.5352 13.7109 82.5352 10.9805V10.957C82.5352 8.26172 83.8359 6.70312 85.7812 6.70312C87.7617 6.70312 89.0508 8.26172 89.0508 10.957V10.9805C89.0508 13.6992 87.7852 15.2695 85.8047 15.2695Z" fill="black"/>
<path d="M76.6172 2.91797C77.4492 2.91797 78.0938 2.26172 78.0938 1.46484C78.0938 0.65625 77.4492 0 76.6172 0C75.7969 0 75.1406 0.65625 75.1406 1.46484C75.1406 2.26172 75.7969 2.91797 76.6172 2.91797ZM75.3516 17.1445H77.8828V4.81641H75.3516V17.1445Z" fill="black"/>
<path d="M71.2969 17.3203C72.1523 17.3203 72.832 16.6406 72.832 15.7852C72.832 14.918 72.1523 14.25 71.2969 14.25C70.4297 14.25 69.75 14.918 69.75 15.7852C69.75 16.6406 70.4297 17.3203 71.2969 17.3203Z" fill="black"/>
<path d="M18.5156 17.4023C20.4141 17.4023 21.7031 16.5117 22.3477 15.0703H22.418V17.1445H25.8398V4.58203H22.418V11.8008C22.418 13.4414 21.4453 14.5664 19.9102 14.5664C18.375 14.5664 17.6016 13.6172 17.6016 11.9766V4.58203H14.1797V12.6914C14.1797 15.6328 15.75 17.4023 18.5156 17.4023Z" fill="url(#paint0_linear)"/>
<path d="M7.35938 17.4023C10.5234 17.4023 12.4805 14.9414 12.4805 10.8633V10.8516C12.4805 6.76172 10.5234 4.32422 7.37109 4.32422C5.57812 4.32422 4.18359 5.23828 3.49219 6.76172H3.42188V0.234375H0V17.1445H3.42188V15H3.49219C4.17188 16.4883 5.55469 17.4023 7.35938 17.4023ZM6.22266 14.5664C4.55859 14.5664 3.42188 13.1367 3.42188 10.8633V10.8516C3.42188 8.58984 4.57031 7.16016 6.22266 7.16016C7.92188 7.16016 9 8.55469 9 10.8516V10.8633C9 13.1484 7.92188 14.5664 6.22266 14.5664Z" fill="url(#paint1_linear)"/>
<path d="M60.3047 17.3438C61.957 17.3438 63.293 16.5586 64.0078 15.2695H64.0781V17.1445H67.5V8.53125C67.5 6 65.4023 4.32422 62.1562 4.32422C58.8398 4.32422 56.8477 5.98828 56.6602 8.30859L56.6484 8.44922H59.7773L59.8008 8.34375C59.9648 7.53516 60.7383 6.9375 62.0156 6.9375C63.3516 6.9375 64.0781 7.62891 64.0781 8.74219V9.51562L60.9727 9.70312C57.8555 9.90234 56.0859 11.2383 56.0859 13.5234V13.5469C56.0859 15.7617 57.7852 17.3438 60.3047 17.3438ZM59.4727 13.3711V13.3477C59.4727 12.457 60.1641 11.8945 61.4883 11.8125L64.0781 11.6484V12.5508C64.0781 13.8633 62.9531 14.8477 61.418 14.8477C60.2344 14.8477 59.4727 14.2969 59.4727 13.3711Z" fill="url(#paint2_linear)"/>
<path d="M48.1875 21.5039C51.9609 21.5039 54.3164 19.5938 54.3164 16.793V4.58203H50.8945V6.72656H50.8242C50.1445 5.26172 48.7734 4.32422 47.0039 4.32422C43.8281 4.32422 41.8594 6.70312 41.8594 10.7109V10.7227C41.8594 14.625 43.8047 16.9688 46.9453 16.9688C48.7617 16.9688 50.168 16.1367 50.8242 14.8242H50.8945V16.7461C50.8945 18.1523 49.957 19.0664 48.1875 19.0664C46.7578 19.0664 45.8438 18.5273 45.5742 17.9062L45.5391 17.8242H42.2109L42.2227 17.9297C42.5508 19.9453 44.7305 21.5039 48.1875 21.5039ZM48.1289 14.4609C46.418 14.4609 45.3398 13.0664 45.3398 10.8047V10.793C45.3398 8.54297 46.4297 7.16016 48.1289 7.16016C49.793 7.16016 50.9062 8.55469 50.9062 10.793V10.8047C50.9062 13.0547 49.8047 14.4609 48.1289 14.4609Z" fill="url(#paint3_linear)"/>
<path d="M33.9375 21.5039C37.7109 21.5039 40.0664 19.5938 40.0664 16.793V4.58203H36.6445V6.72656H36.5742C35.8945 5.26172 34.5234 4.32422 32.7539 4.32422C29.5781 4.32422 27.6094 6.70312 27.6094 10.7109V10.7227C27.6094 14.625 29.5547 16.9688 32.6953 16.9688C34.5117 16.9688 35.918 16.1367 36.5742 14.8242H36.6445V16.7461C36.6445 18.1523 35.707 19.0664 33.9375 19.0664C32.5078 19.0664 31.5938 18.5273 31.3242 17.9062L31.2891 17.8242H27.9609L27.9727 17.9297C28.3008 19.9453 30.4805 21.5039 33.9375 21.5039ZM33.8789 14.4609C32.168 14.4609 31.0898 13.0664 31.0898 10.8047V10.793C31.0898 8.54297 32.1797 7.16016 33.8789 7.16016C35.543 7.16016 36.6562 8.55469 36.6562 10.793V10.8047C36.6562 13.0547 35.5547 14.4609 33.8789 14.4609Z" fill="url(#paint4_linear)"/>
<defs>
<linearGradient id="paint0_linear" x1="9.87684e-07" y1="-1.28576e-05" x2="26" y2="-1.32557e-05" gradientUnits="userSpaceOnUse">
<stop stop-color="#33B970"/>
<stop offset="1" stop-color="#8ED100"/>
</linearGradient>
<linearGradient id="paint1_linear" x1="9.87684e-07" y1="-1.28576e-05" x2="26" y2="-1.32557e-05" gradientUnits="userSpaceOnUse">
<stop stop-color="#33B970"/>
<stop offset="1" stop-color="#8ED100"/>
</linearGradient>
<linearGradient id="paint2_linear" x1="28" y1="9.41922e-07" x2="68" y2="3.29518e-07" gradientUnits="userSpaceOnUse">
<stop stop-color="#E29A0C"/>
<stop offset="0.550531" stop-color="#E24C0C"/>
<stop offset="1" stop-color="#CF2828"/>
</linearGradient>
<linearGradient id="paint3_linear" x1="28" y1="9.41922e-07" x2="68" y2="3.29518e-07" gradientUnits="userSpaceOnUse">
<stop stop-color="#E29A0C"/>
<stop offset="0.550531" stop-color="#E24C0C"/>
<stop offset="1" stop-color="#CF2828"/>
</linearGradient>
<linearGradient id="paint4_linear" x1="28" y1="9.41922e-07" x2="68" y2="3.29518e-07" gradientUnits="userSpaceOnUse">
<stop stop-color="#E29A0C"/>
<stop offset="0.550531" stop-color="#E24C0C"/>
<stop offset="1" stop-color="#CF2828"/>
</linearGradient>
</defs>
</svg>
